<?xml version="1.0" encoding="UTF-8" standalone="no"?>
<!--Generator: Apple Native CoreSVG 341-->

<svg
   version="1.1"
   viewBox="0 0 899.25 1207.88"
   id="svg10"
   sodipodi:docname="popcorn.svg"
   inkscape:version="1.2.2 (b0a84865, 2022-12-01)"
   xmlns:inkscape="http://www.inkscape.org/namespaces/inkscape"
   xmlns:sodipodi="http://sodipodi.sourceforge.net/DTD/sodipodi-0.dtd"
   xmlns="http://www.w3.org/2000/svg"
   xmlns:svg="http://www.w3.org/2000/svg">
  <defs
     id="defs14" />
  <sodipodi:namedview
     id="namedview12"
     pagecolor="#ffffff"
     bordercolor="#111111"
     borderopacity="1"
     inkscape:showpageshadow="0"
     inkscape:pageopacity="0"
     inkscape:pagecheckerboard="1"
     inkscape:deskcolor="#d1d1d1"
     showgrid="false"
     inkscape:zoom="0.19538365"
     inkscape:cx="447.83687"
     inkscape:cy="603.94"
     inkscape:window-width="1344"
     inkscape:window-height="456"
     inkscape:window-x="0"
     inkscape:window-y="33"
     inkscape:window-maximized="0"
     inkscape:current-layer="svg10" />
  <g
     id="g8">
    <path
       d="M483.75 76.875C499.5 73.5 517.5 74.25 531.375 78.75C553.5 57.375 583.125 45.375 615.75 45.375C667.125 45.375 705 77.25 722.625 123.75C797.25 125.25 850.875 183 850.875 262.875C850.875 299.221 837.159 332.591 814.607 357.56C848.486 387.906 865.831 434.268 855 490.875L791.099 828.502C776.382 812.77 757.092 801.249 734.979 795.076L794.25 487.5C807.375 420.75 760.875 379.5 702.75 379.5C657 379.5 619.5 409.875 614.625 466.125L578.993 861.74C574.032 873.295 571.083 886.023 570.375 899.625C547.702 904.43 527.254 915.427 510.956 930.692L553.125 464.25C559.125 398.25 517.875 354.75 449.625 354.75C381 354.75 339.75 398.25 345.75 464.25L401.25 1074L483.344 1074C497.433 1103.18 522.943 1125.5 554.319 1135.87L259.125 1135.88C193.875 1135.88 159.75 1101 147.375 1035.75L44.25 490.875C33.9146 436.858 49.2355 392.17 80.1265 361.851C60.0096 339.051 48 308.594 48 274.875C48 204 106.5 144.75 176.625 146.625C176.625 108.75 211.125 75 250.125 80.25C258.75 39 303.375 0 367.875 0C418.875 0 463.5 30 483.75 76.875ZM104.625 487.5L209.625 1032.38C214.875 1060.5 232.5 1074 261.375 1074L339.375 1074L284.625 466.125C279.75 409.875 242.25 379.5 196.5 379.5C138 379.5 91.875 420.75 104.625 487.5ZM301.5 144C250.5 120.75 201.75 159.75 210.75 208.875C154.875 196.125 107.625 229.5 107.625 274.875C107.625 297.299 117.435 316.657 133 328.702C152.278 321.42 173.784 317.625 196.5 317.625C241.5 317.625 280.125 336 306.75 370.5C331.125 323.625 384 292.875 449.625 292.875C515.25 292.875 568.125 323.625 592.5 370.5C619.125 336 657.75 317.625 702.75 317.625C722.853 317.625 742.009 320.597 759.476 326.388C778.467 312.536 791.25 290.733 791.25 266.625C791.25 209.25 745.125 178.125 684.375 189C687 141 661.875 105.75 618.375 105.75C588 105.75 562.125 122.25 549.375 151.5C524.625 130.875 472.875 126.75 442.5 148.125C448.5 91.875 408.375 60.375 367.875 60.375C325.875 60.375 290.625 91.875 301.5 144Z"
       fill="white"
       fill-opacity="0.85"
       id="path4" />
    <path
       d="M696 1207.12C742.875 1207.12 785.625 1179.38 803.625 1138.5C861.375 1127.25 899.25 1078.12 899.25 1021.12C899.25 969.375 867 925.875 822.375 907.125C821.25 837.75 766.125 789.75 696 789.75C628.125 789.75 573.75 834.75 570.375 899.625C513.75 911.625 471 962.25 471 1020.38C471 1086.75 522.375 1138.88 588 1142.25C605.625 1180.12 648.375 1207.12 696 1207.12ZM696 1152.75C656.625 1152.75 622.875 1127.62 626.625 1084.88C574.875 1099.5 525 1072.88 525 1020.38C525 969.375 566.25 938.25 625.5 946.125C610.875 898.5 637.875 844.125 696 844.125C754.125 844.125 783.375 898.125 768.375 951C813.375 948 843.75 977.25 843.75 1023C843.75 1065.75 814.875 1091.25 764.25 1087.12C765 1125 731.625 1152.75 696 1152.75Z"
       fill="white"
       fill-opacity="0.85"
       id="path6" />
  </g>
</svg>
